KRSPY-parametric-WideBlackMinGrade.ufo
<glyph name="comma" format="2">
  <advance width="1688"/>
  <unicode hex="002C"/>
  <outline>
    <contour>
      <point x="1359" y="-110" type="line"/>
      <point x="1617" y="1" type="line"/>
      <point x="1617" y="508" type="line"/>
      <point x="904" y="508" type="line"/>
      <point x="773" y="341" type="line"/>
      <point x="773" y="0" type="line"/>
      <point x="1221" y="0" type="line"/>
      <point x="1221" y="-110" type="line"/>
    </contour>
  </outline>
</glyph>
<glyph name="period" format="2">
  <advance width="1117"/>
  <unicode hex="002E"/>
  <outline>
    <contour>
      <point x="945" y="0" type="line" identifier="1m237t4hyw"/>
      <point x="1054" y="109" type="line" identifier="v7N4yg5XNk"/>
      <point x="1054" y="500" type="line"/>
      <point x="292" y="500" type="line" identifier="zfocDyDTCM"/>
      <point x="184" y="392" type="line"/>
      <point x="184" y="0" type="line" identifier="S4rO5KuHiL"/>
    </contour>
  </outline>
</glyph>
<glyph name="three" format="2">
  <advance width="4817"/>
  <unicode hex="0033"/>
  <outline>
    <contour>
      <point x="84" y="0" type="line" identifier="O9abUc1nmN"/>
      <point x="4747" y="0" type="line" identifier="kMJYMTfXCq"/>
      <point x="4747" y="891" type="line" identifier="su2XmdS8e8"/>
      <point x="4189" y="897" type="line" identifier="JQaOzDQqlF"/>
      <point x="4112" y="794" type="line"/>
      <point x="4644" y="1080" type="line" identifier="S91TzLL02W"/>
      <point x="4644" y="1600" type="line" identifier="xg8x2Ki40p"/>
      <point x="106" y="1600" type="line" identifier="pE1XSRiy68"/>
      <point x="106" y="931" type="line" identifier="5lNstGRcSF"/>
      <point x="950" y="931" type="line" identifier="AcE5xKDZfE"/>
      <point x="950" y="1133" type="line" identifier="7ogBYufWpl"/>
      <point x="3617" y="1133" type="line" identifier="RHLvSX2Jv6"/>
      <point x="3617" y="1128" type="line" identifier="YUjTrmoWd9"/>
      <point x="3409" y="1032" type="line"/>
      <point x="3486" y="1031" type="line" identifier="iic1IBkDqp"/>
      <point x="1438" y="1031" type="line" identifier="lRLJEhXMlO"/>
      <point x="1438" y="564" type="line" identifier="8aKgEELrVU"/>
      <point x="3903" y="564" type="line" identifier="Dm8zjmbhNr"/>
      <point x="3903" y="467" type="line" identifier="xv9CFHiFgB"/>
      <point x="930" y="467" type="line" identifier="YajKQV3MHP"/>
      <point x="930" y="664" type="line" identifier="36SchVkwze"/>
      <point x="84" y="664" type="line" identifier="tVui9PiOjA"/>
    </contour>
  </outline>
</glyph>
<glyph name="four" format="2">
  <advance width="4782"/>
  <unicode hex="0034"/>
  <outline>
    <contour>
      <point x="3456" y="0" type="line"/>
      <point x="4300" y="0" type="line"/>
      <point x="4300" y="499" type="line"/>
      <point x="4697" y="499" type="line"/>
      <point x="4697" y="1002" type="line"/>
      <point x="4300" y="1002" type="line"/>
      <point x="4300" y="1600" type="line"/>
      <point x="3456" y="1600" type="line"/>
      <point x="3456" y="1002" type="line"/>
      <point x="927" y="1002" type="line"/>
      <point x="927" y="1075" type="line"/>
      <point x="1337" y="1615" type="line"/>
      <point x="495" y="1615" type="line"/>
      <point x="84" y="1075" type="line"/>
      <point x="84" y="499" type="line"/>
      <point x="3456" y="499" type="line"/>
    </contour>
  </outline>
</glyph>
<glyph name="B" format="2">
  <advance width="4942"/>
  <unicode hex="0042"/>
  <outline>
    <contour>
      <point x="138" y="0" type="line" identifier="hvY9r8RmLr"/>
      <point x="4869" y="0" type="line" identifier="9QFpw7nfq7"/>
      <point x="4869" y="568" type="line" identifier="543PerILpr"/>
      <point x="4523" y="799" type="line" identifier="zhomauHW30"/>
      <point x="4523" y="801" type="line" identifier="870ZhtaozS"/>
      <point x="4817" y="1026" type="line" identifier="eGKH52Jgnk"/>
      <point x="4817" y="1600" type="line" identifier="FaP204GrdB"/>
      <point x="138" y="1600" type="line" identifier="JEev70GAj6"/>
    </contour>
    <contour>
      <point x="980" y="1033" type="line" identifier="By7dfMihfe"/>
      <point x="981" y="1133" type="line" identifier="1p5hKrurVy"/>
      <point x="3973" y="1133" type="line" identifier="Qby8aMtF2X"/>
      <point x="3973" y="1166" type="line" identifier="9lW01gQyU2"/>
      <point x="3816" y="1033" type="line" identifier="xpxyvIzPoc"/>
    </contour>
    <contour>
      <point x="981" y="467" type="line" identifier="jaMSiLrCua"/>
      <point x="981" y="566" type="line" identifier="XSrxNd2axx"/>
      <point x="3688" y="566" type="line" identifier="VyYlzRh5nq"/>
      <point x="4025" y="379" type="line" identifier="lsRGatjQja"/>
      <point x="4025" y="467" type="line" identifier="xhlDJ3CjD5"/>
    </contour>
  </outline>
</glyph>
<glyph name="C" format="2">
  <advance width="4888"/>
  <unicode hex="0043"/>
  <outline>
    <contour>
      <point x="81" y="0" type="line" identifier="7lPhzTnk2Z"/>
      <point x="4791" y="0" type="line" identifier="qJVLZGnkwh"/>
      <point x="4791" y="737" type="line" identifier="nDnDHzAMXL"/>
      <point x="3947" y="737" type="line" identifier="QX1V08aTu0"/>
      <point x="3947" y="503" type="line" identifier="Y750RHTvDj"/>
      <point x="925" y="503" type="line" identifier="L2LsGnXiZ2"/>
      <point x="925" y="878" type="line" identifier="sUWsr03vF4"/>
      <point x="1128" y="1097" type="line" identifier="dbOUe6OhxL"/>
      <point x="3948" y="1097" type="line" identifier="5BjRbcud80"/>
      <point x="3948" y="922" type="line" identifier="fNVDqwQo2o"/>
      <point x="4792" y="922" type="line" identifier="wLqQQx7QVN"/>
      <point x="4792" y="1600" type="line" identifier="9eJelv8BOw"/>
      <point x="553" y="1600" type="line" identifier="lfZev3ICaC"/>
      <point x="81" y="1095" type="line" identifier="V1EWIdPahq"/>
    </contour>
  </outline>
</glyph>
<glyph name="R" format="2">
  <advance width="4877"/>
  <unicode hex="0052"/>
  <outline>
    <contour>
      <point x="976" y="903" type="line"/>
      <point x="975" y="1097" type="line"/>
      <point x="3962" y="1097" type="line"/>
      <point x="3962" y="985" type="line"/>
      <point x="3846" y="914" type="line"/>
    </contour>
    <contour>
      <point x="4809" y="0" type="line"/>
      <point x="4461" y="606" type="line"/>
      <point x="4807" y="884" type="line"/>
      <point x="4806" y="1600" type="line"/>
      <point x="132" y="1600" type="line"/>
      <point x="132" y="0" type="line"/>
      <point x="975" y="0" type="line"/>
      <point x="975" y="400" type="line"/>
      <point x="3748" y="411" type="line"/>
      <point x="3967" y="0" type="line"/>
    </contour>
  </outline>
</glyph>
<glyph name="S" format="2">
  <advance width="4551"/>
  <unicode hex="0053"/>
  <outline>
    <contour>
      <point x="78" y="0" type="line" identifier="09VlJ0BjUX"/>
      <point x="4473" y="0" type="line" identifier="EagWihqFM8"/>
      <point x="4473" y="1032" type="line" identifier="KfNuQA7eZe"/>
      <point x="926" y="1032" type="line" identifier="At364YZFEy"/>
      <point x="926" y="1217" type="line"/>
      <point x="939" y="1133" type="line"/>
      <point x="3629" y="1133" type="line" identifier="3ZUkG35meB"/>
      <point x="3629" y="1084" type="line" identifier="DTOJhFIl15"/>
      <point x="4472" y="1084" type="line" identifier="9KDcrfQ5Ui"/>
      <point x="4472" y="1600" type="line" identifier="SaF9ojRFrW"/>
      <point x="472" y="1600" type="line"/>
      <point x="83" y="1222" type="line"/>
      <point x="83" y="565" type="line" identifier="3sQ8t8BZ6b"/>
      <point x="3629" y="565" type="line" identifier="yiV6OCBLHg"/>
      <point x="3629" y="467" type="line" identifier="9kdl9SYsn8"/>
      <point x="922" y="467" type="line" identifier="yZDWuX8LLe"/>
      <point x="922" y="500" type="line" identifier="jYb9001DTm"/>
      <point x="78" y="500" type="line" identifier="ho4DrS0rdW"/>
    </contour>
  </outline>
</glyph>
<glyph name="X" format="2">
  <advance width="4833"/>
  <unicode hex="0058"/>
  <outline>
    <contour>
      <point x="3565" y="530" type="line"/>
      <point x="3921" y="306" type="line"/>
      <point x="3921" y="0" type="line"/>
      <point x="4765" y="0" type="line"/>
      <point x="4765" y="536" type="line"/>
      <point x="4326" y="775" type="line"/>
      <point x="4326" y="777" type="line"/>
      <point x="4762" y="983" type="line"/>
      <point x="4762" y="1600" type="line"/>
      <point x="3918" y="1600" type="line"/>
      <point x="3918" y="1179" type="line"/>
      <point x="3646" y="1033" type="line"/>
      <point x="1188" y="1033" type="line"/>
      <point x="915" y="1179" type="line"/>
      <point x="915" y="1600" type="line"/>
      <point x="71" y="1600" type="line"/>
      <point x="71" y="983" type="line"/>
      <point x="510" y="777" type="line"/>
      <point x="510" y="775" type="line"/>
      <point x="68" y="536" type="line"/>
      <point x="68" y="0" type="line"/>
      <point x="912" y="0" type="line"/>
      <point x="912" y="306" type="line"/>
      <point x="1269" y="530" type="line"/>
    </contour>
  </outline>
</glyph>
<glyph name="C.wide" format="2">
  <advance width="5047"/>
  <outline>
    <contour>
      <point x="283" y="0" type="line" identifier="7lPhzTnk2Z"/>
      <point x="4934" y="0" type="line" identifier="qJVLZGnkwh"/>
      <point x="4934" y="568" type="line" identifier="Y750RHTvDj"/>
      <point x="1126" y="568" type="line" identifier="L2LsGnXiZ2"/>
      <point x="1127" y="785" type="line" identifier="sUWsr03vF4"/>
      <point x="1368" y="1032" type="line" identifier="dbOUe6OhxL"/>
      <point x="4933" y="1032" type="line" identifier="5BjRbcud80"/>
      <point x="4933" y="1600" type="line" identifier="9eJelv8BOw"/>
      <point x="755" y="1600" type="line" identifier="lfZev3ICaC"/>
      <point x="283" y="1095" type="line" identifier="V1EWIdPahq"/>
    </contour>
  </outline>
</glyph>
<glyph name="F.wide" format="2">
  <advance width="4328"/>
  <outline>
    <contour>
      <point x="99" y="0" type="line" identifier="oAgH2tA6DJ"/>
      <point x="942" y="0" type="line" identifier="zCZyMcW5ho"/>
      <point x="942" y="362" type="line" identifier="yHYqkMd7LI"/>
      <point x="3899" y="362" type="line" identifier="NmB7yyQuio"/>
      <point x="3899" y="865" type="line" identifier="wQk2C8zPHh"/>
      <point x="942" y="865" type="line" identifier="4cFHKQfHDt"/>
      <point x="942" y="1097" type="line" identifier="ZvzwyrcwpS"/>
      <point x="4279" y="1097" type="line" identifier="4E754ovOIe"/>
      <point x="4279" y="1600" type="line" identifier="NUrIjqOB7J"/>
      <point x="99" y="1600" type="line" identifier="TBAYuCfUFX"/>
    </contour>
  </outline>
</glyph>
<glyph name="G.wide" format="2">
  <advance width="4885"/>
  <outline>
    <contour>
      <point x="81" y="0" type="line" identifier="7lPhzTnk2Z"/>
      <point x="4613" y="0" type="line" identifier="qJVLZGnkwh"/>
      <point x="4613" y="1022" type="line" identifier="uek1NNj7De"/>
      <point x="2779" y="1022" type="line" identifier="qcvimxjndX"/>
      <point x="2779" y="563" type="line" identifier="EARaY3Su65"/>
      <point x="3770" y="563" type="line" identifier="4m6dHLVhZq"/>
      <point x="3770" y="467" type="line" identifier="Y750RHTvDj"/>
      <point x="924" y="467" type="line" identifier="L2LsGnXiZ2"/>
      <point x="924" y="928" type="line" identifier="sUWsr03vF4"/>
      <point x="1132" y="1133" type="line" identifier="dbOUe6OhxL"/>
      <point x="4612" y="1133" type="line" identifier="5BjRbcud80"/>
      <point x="4612" y="1600" type="line" identifier="9eJelv8BOw"/>
      <point x="549" y="1600" type="line" identifier="lfZev3ICaC"/>
      <point x="81" y="1099" type="line" identifier="V1EWIdPahq"/>
    </contour>
  </outline>
</glyph>
<glyph name="I.narrow" format="2">
  <advance width="1686"/>
  <outline>
    <contour>
      <point x="1265" y="0" type="line" identifier="1m237t4hyw"/>
      <point x="1265" y="1601" type="line" identifier="v7N4yg5XNk"/>
      <point x="420" y="1601" type="line" identifier="zfocDyDTCM"/>
      <point x="420" y="0" type="line" identifier="S4rO5KuHiL"/>
    </contour>
  </outline>
</glyph>
<glyph name="K.narrow" format="2">
  <advance width="4875"/>
  <outline>
    <contour>
      <point x="978" y="0" type="line"/>
      <point x="978" y="500" type="line"/>
      <point x="3725" y="643" type="line"/>
      <point x="3960" y="0" type="line"/>
      <point x="4805" y="0" type="line"/>
      <point x="4455" y="817" type="line"/>
      <point x="4744" y="832" type="line"/>
      <point x="4744" y="1600" type="line"/>
      <point x="3900" y="1600" type="line"/>
      <point x="3900" y="1157" type="line"/>
      <point x="978" y="1002" type="line"/>
      <point x="978" y="1600" type="line"/>
      <point x="134" y="1600" type="line"/>
      <point x="134" y="0" type="line"/>
    </contour>
  </outline>
</glyph>
<glyph name="L.wide" format="2">
  <advance width="4202"/>
  <outline>
    <contour>
      <point x="143" y="0" type="line" identifier="XkJNfQlnnt"/>
      <point x="4126" y="0" type="line" identifier="82EXZEgt46"/>
      <point x="4126" y="503" type="line" identifier="cqpSxwFiM3"/>
      <point x="986" y="503" type="line" identifier="MbxRZRd8vz"/>
      <point x="986" y="1600" type="line" identifier="lYiaKSKITt"/>
      <point x="143" y="1600" type="line" identifier="XFf4mMUzYo"/>
    </contour>
  </outline>
</glyph>
<glyph name="N.narrow" format="2">
  <advance width="5981"/>
  <outline>
    <contour>
      <point x="226" y="81" type="line" smooth="yes"/>
      <point x="1069" y="81" type="line"/>
      <point x="1069" y="743" type="line"/>
      <point x="1459" y="1080" type="line"/>
      <point x="4910" y="1080" type="line"/>
      <point x="4910" y="0" type="line" smooth="yes"/>
      <point x="5755" y="0" type="line" smooth="yes"/>
      <point x="5755" y="1600" type="line" smooth="yes"/>
      <point x="1298" y="1600" type="line" smooth="yes"/>
      <point x="1041" y="1481" type="line"/>
      <point x="928" y="1481" type="line"/>
      <point x="928" y="1600" type="line"/>
      <point x="226" y="1600" type="line"/>
    </contour>
  </outline>
</glyph>
<glyph name="N.wide" format="2">
  <advance width="4138"/>
  <outline>
    <contour>
      <point x="106" y="0" type="line" identifier="CkwYPPvJLv"/>
      <point x="949" y="0" type="line" identifier="oHTJsN7drZ"/>
      <point x="949" y="977" type="line" identifier="wfBbYd10Pm"/>
      <point x="964" y="977" type="line" identifier="MEnBDHq6zU"/>
      <point x="3177" y="0" type="line" identifier="3Nbopwznvn"/>
      <point x="4031" y="0" type="line" identifier="uKfuudIUvA"/>
      <point x="4031" y="1600" type="line" identifier="XRdLFXiM4t"/>
      <point x="3188" y="1600" type="line" identifier="MUSJPjCIXg"/>
      <point x="3188" y="628" type="line" identifier="VILP20cFmq"/>
      <point x="3176" y="628" type="line" identifier="z5b04GDwRN"/>
      <point x="966" y="1600" type="line" identifier="LL64NQ6WBE"/>
      <point x="106" y="1600" type="line" identifier="dzUaaP1sjt"/>
    </contour>
  </outline>
</glyph>
<glyph name="S.wide" format="2">
  <advance width="4420"/>
  <outline>
    <contour>
      <point x="73" y="0" type="line" identifier="09VlJ0BjUX"/>
      <point x="4346" y="0" type="line" identifier="EagWihqFM8"/>
      <point x="4346" y="1031" type="line" identifier="KfNuQA7eZe"/>
      <point x="912" y="1031" type="line" identifier="At364YZFEy"/>
      <point x="912" y="1075" type="line"/>
      <point x="993" y="1133" type="line"/>
      <point x="4346" y="1133" type="line" identifier="3ZUkG35meB"/>
      <point x="4346" y="1600" type="line" identifier="SaF9ojRFrW"/>
      <point x="534" y="1600" type="line"/>
      <point x="77" y="1080" type="line"/>
      <point x="77" y="569" type="line" identifier="3sQ8t8BZ6b"/>
      <point x="3502" y="569" type="line" identifier="yiV6OCBLHg"/>
      <point x="3502" y="467" type="line" identifier="9kdl9SYsn8"/>
      <point x="73" y="467" type="line" identifier="yZDWuX8LLe"/>
    </contour>
  </outline>
</glyph>
<glyph name="Z.wide" format="2">
  <advance width="4664"/>
  <outline>
    <contour>
      <point x="65" y="0" type="line"/>
      <point x="4585" y="0" type="line" identifier="pzdvPTirLJ"/>
      <point x="4585" y="466" type="line"/>
      <point x="1000" y="466" type="line"/>
      <point x="1000" y="530" type="line"/>
      <point x="4564" y="723" type="line" identifier="yyb1NCCI5w"/>
      <point x="4564" y="1600" type="line" identifier="5FogYRSgkk"/>
      <point x="97" y="1600" type="line" identifier="svlFvrau4c"/>
      <point x="97" y="1133" type="line"/>
      <point x="3531" y="1133" type="line"/>
      <point x="3531" y="1096" type="line"/>
      <point x="65" y="913" type="line" identifier="teVKnpBcVb"/>
    </contour>
  </outline>
</glyph>
<glyph name="three.wide" format="2">
  <advance width="4785"/>
  <outline>
    <contour>
      <point x="82" y="0" type="line" identifier="O9abUc1nmN"/>
      <point x="4653" y="0" type="line" identifier="kMJYMTfXCq"/>
      <point x="4653" y="890" type="line" identifier="su2XmdS8e8"/>
      <point x="4095" y="890" type="line" identifier="JQaOzDQqlF"/>
      <point x="4095" y="787" type="line"/>
      <point x="4641" y="997" type="line" identifier="S91TzLL02W"/>
      <point x="4641" y="1600" type="line" identifier="xg8x2Ki40p"/>
      <point x="104" y="1600" type="line" identifier="pE1XSRiy68"/>
      <point x="104" y="1072" type="line" identifier="7ogBYufWpl"/>
      <point x="3614" y="1072" type="line" identifier="RHLvSX2Jv6"/>
      <point x="3614" y="988" type="line" identifier="YUjTrmoWd9"/>
      <point x="3392" y="953" type="line"/>
      <point x="3392" y="952" type="line" identifier="iic1IBkDqp"/>
      <point x="810" y="952" type="line" identifier="lRLJEhXMlO"/>
      <point x="810" y="642" type="line" identifier="8aKgEELrVU"/>
      <point x="3809" y="642" type="line" identifier="Dm8zjmbhNr"/>
      <point x="3809" y="527" type="line" identifier="xv9CFHiFgB"/>
      <point x="82" y="527" type="line" identifier="YajKQV3MHP"/>
    </contour>
  </outline>
</glyph>
